<svg width="45" height="23" viewBox="0 0 45 23" fill="none" xmlns="http://www.w3.org/2000/svg">
<g clip-path="url(#clip0_2_77)">
<g clip-path="url(#clip1_2_77)">
<path fill-rule="evenodd" clip-rule="evenodd" d="M33 4C33.152 3.99985 33.302 4.03436 33.4386 4.10092C33.5752 4.16748 33.6948 4.26433 33.7883 4.38409C33.8819 4.50386 33.9469 4.64338 33.9783 4.79205C34.0098 4.94071 34.007 5.0946 33.97 5.242L31.97 13.242C31.916 13.4584 31.7912 13.6506 31.6155 13.788C31.4397 13.9253 31.2231 13.9999 31 14H18C17.7769 13.9999 17.5603 13.9253 17.3845 13.788C17.2088 13.6506 17.084 13.4584 17.03 13.242L14.22 2H12C11.7348 2 11.4804 1.89464 11.2929 1.70711C11.1054 1.51957 11 1.26522 11 1C11 0.734784 11.1054 0.48043 11.2929 0.292893C11.4804 0.105357 11.7348 0 12 0L15 0C15.2231 6.1623e-05 15.4397 0.0747014 15.6155 0.212049C15.7912 0.349398 15.916 0.541568 15.97 0.758L16.78 4H33ZM31.723 6H17.28L18.78 12H30.222L31.723 6ZM27.184 18C27.3895 17.4167 27.7704 16.9113 28.2747 16.5532C28.7789 16.1951 29.3816 16.0018 30 16C30.549 15.999 31.0877 16.149 31.5573 16.4334C32.0268 16.7179 32.4091 17.126 32.6625 17.6131C32.9158 18.1001 33.0303 18.6475 32.9936 19.1952C32.9569 19.743 32.7704 20.2702 32.4543 20.7191C32.1383 21.168 31.7049 21.5214 31.2016 21.7407C30.6983 21.96 30.1444 22.0367 29.6005 21.9625C29.0565 21.8883 28.5434 21.666 28.1172 21.3199C27.6911 20.9738 27.3682 20.5172 27.184 20H21.816C21.5801 20.6672 21.1159 21.2296 20.5055 21.5876C19.8951 21.9457 19.1778 22.0765 18.4803 21.9568C17.7828 21.8371 17.15 21.4747 16.6939 20.9337C16.2378 20.3926 15.9876 19.7077 15.9876 19C15.9876 18.2923 16.2378 17.6074 16.6939 17.0663C17.15 16.5253 17.7828 16.1629 18.4803 16.0432C19.1778 15.9235 19.8951 16.0543 20.5055 16.4124C21.1159 16.7704 21.5801 17.3328 21.816 18H27.184ZM18 19C18 19.2652 18.1054 19.5196 18.2929 19.7071C18.4804 19.8946 18.7348 20 19 20C19.2652 20 19.5196 19.8946 19.7071 19.7071C19.8946 19.5196 20 19.2652 20 19C20 18.7348 19.8946 18.4804 19.7071 18.2929C19.5196 18.1054 19.2652 18 19 18C18.7348 18 18.4804 18.1054 18.2929 18.2929C18.1054 18.4804 18 18.7348 18 19ZM30 20C29.7348 20 29.4804 19.8946 29.2929 19.7071C29.1054 19.5196 29 19.2652 29 19C29 18.7348 29.1054 18.4804 29.2929 18.2929C29.4804 18.1054 29.7348 18 30 18C30.2652 18 30.5196 18.1054 30.7071 18.2929C30.8946 18.4804 31 18.7348 31 19C31 19.2652 30.8946 19.5196 30.7071 19.7071C30.5196 19.8946 30.2652 20 30 20Z" fill="black"/>
</g>
</g>
<defs>
<clipPath id="clip0_2_77">
<rect width="23" height="20" fill="white" transform="translate(11)"/>
</clipPath>
<clipPath id="clip1_2_77">
<rect width="23" height="22" fill="white" transform="translate(11)"/>
</clipPath>
</defs>
</svg>
