<svg width="9" height="5" viewBox="0 0 9 5" fill="none" xmlns="http://www.w3.org/2000/svg">
<g clip-path="url(#clip0_2_67)">
<g clip-path="url(#clip1_2_67)">
<path d="M4.50005 5.00005C4.43424 5.00045 4.369 4.98785 4.30808 4.96297C4.24715 4.93809 4.19175 4.90141 4.14505 4.85505L0.147046 0.857046C0.052894 0.762894 0 0.635197 0 0.502046C0 0.368895 0.052894 0.241198 0.147046 0.147046C0.241198 0.052894 0.368895 0 0.502046 0C0.635197 0 0.762894 0.052894 0.857046 0.147046L4.50005 3.79555L8.14355 0.147046C8.2377 0.052894 8.36539 4.29757e-09 8.49855 5.28962e-09C8.6317 6.28167e-09 8.75939 0.052894 8.85355 0.147046C8.9477 0.241198 9.00059 0.368895 9.00059 0.502046C9.00059 0.635197 8.9477 0.762894 8.85355 0.857046L4.85505 4.85505C4.80834 4.90141 4.75294 4.93809 4.69201 4.96297C4.63109 4.98785 4.56585 5.00045 4.50005 5.00005Z" fill="black"/>
</g>
</g>
<defs>
<clipPath id="clip0_2_67">
<rect width="9" height="5" fill="white"/>
</clipPath>
<clipPath id="clip1_2_67">
<rect width="9" height="5" fill="white"/>
</clipPath>
</defs>
</svg>
