<svg width="28" height="29" viewBox="0 0 28 29" fill="none" xmlns="http://www.w3.org/2000/svg">
<g clip-path="url(#clip0_2_760)">
<g clip-path="url(#clip1_2_760)">
<path d="M14 27.6875C21.4904 27.6875 27.5625 21.6154 27.5625 14.125C27.5625 6.63464 21.4904 0.5625 14 0.5625C6.50964 0.5625 0.4375 6.63464 0.4375 14.125C0.4375 21.6154 6.50964 27.6875 14 27.6875Z" stroke="#E5E5E5" stroke-width="0.875"/>
<path d="M17.2235 8C17.2086 8 17.2384 8 17.2235 8C16.7312 7.99993 16.2438 8.09793 15.7898 8.28827C15.3358 8.47862 14.9243 8.7575 14.5792 9.10863C14.3683 9.33191 14.1747 9.57088 14 9.8235C13.7914 9.52064 13.5553 9.23769 13.2947 8.97825C12.635 8.32025 11.7101 8 10.7712 8H10.7275C9.91024 8 9.09124 8.238 8.46036 8.75688C6.57736 10.303 6.58611 12.8764 8.08411 14.3936L13.3647 19.9761C13.4466 20.0624 13.5452 20.131 13.6545 20.1779C13.7638 20.2249 13.8815 20.2491 14.0004 20.2491C14.1194 20.2491 14.237 20.2249 14.3463 20.1779C14.4556 20.131 14.5542 20.0624 14.6361 19.9761L19.9001 14.4111C20.4262 13.8862 20.7847 13.217 20.9301 12.4882C21.0755 11.7594 21.0013 11.0038 20.7169 10.3172C20.4325 9.63063 19.9507 9.04391 19.3325 8.63139C18.7144 8.21887 17.9877 7.99913 17.2445 8H17.2235ZM17.2314 9.3125C17.8832 9.3125 18.5106 9.56625 18.9717 10.0274C19.1995 10.2536 19.38 10.5227 19.5029 10.8192C19.6257 11.1157 19.6885 11.4337 19.6875 11.7546C19.6875 12.4074 19.4337 13.0208 18.9464 13.5081L14 18.7371L9.01774 13.4705C8.7793 13.2287 8.59377 12.9399 8.47296 12.6225C8.35215 12.3051 8.29869 11.966 8.31599 11.6269C8.35274 10.9181 8.70011 10.2584 9.29336 9.77188C9.65386 9.47525 10.1631 9.3125 10.7275 9.3125H10.7712C11.4074 9.3125 11.9892 9.5295 12.3681 9.9075C12.5711 10.1096 12.7575 10.3328 12.9194 10.569C13.0398 10.7444 13.2011 10.8879 13.3894 10.987C13.5776 11.0861 13.7872 11.1379 14 11.1379C14.2128 11.1379 14.4223 11.0861 14.6106 10.987C14.7989 10.8879 14.9602 10.7444 15.0806 10.569C15.2132 10.3765 15.36 10.1943 15.5199 10.0239C15.7437 9.79765 16.0102 9.61825 16.3041 9.49611C16.5979 9.37398 16.9132 9.31156 17.2314 9.3125Z" fill="#111820"/>
</g>
<g clip-path="url(#clip2_2_760)">
<path d="M14 27.6875C21.4904 27.6875 27.5625 21.6154 27.5625 14.125C27.5625 6.63464 21.4904 0.5625 14 0.5625C6.50964 0.5625 0.4375 6.63464 0.4375 14.125C0.4375 21.6154 6.50964 27.6875 14 27.6875Z" stroke="#3665F3" stroke-width="0.875"/>
<path d="M17.2235 8C17.2086 8 17.2384 8 17.2235 8C16.7312 7.99993 16.2438 8.09793 15.7898 8.28827C15.3358 8.47862 14.9243 8.7575 14.5792 9.10863C14.3683 9.33191 14.1747 9.57088 14 9.8235C13.7914 9.52064 13.5553 9.23769 13.2947 8.97825C12.635 8.32025 11.7101 8 10.7712 8H10.7275C9.91024 8 9.09124 8.238 8.46036 8.75688C6.57736 10.303 6.58611 12.8764 8.08411 14.3936L13.3647 19.9761C13.4466 20.0624 13.5452 20.131 13.6545 20.1779C13.7638 20.2249 13.8815 20.2491 14.0004 20.2491C14.1194 20.2491 14.237 20.2249 14.3463 20.1779C14.4556 20.131 14.5542 20.0624 14.6361 19.9761L19.9001 14.4111C20.4262 13.8862 20.7847 13.217 20.9301 12.4882C21.0755 11.7594 21.0013 11.0038 20.7169 10.3172C20.4325 9.63063 19.9507 9.04391 19.3325 8.63139C18.7144 8.21887 17.9877 7.99913 17.2445 8H17.2235ZM17.2314 9.3125C17.8832 9.3125 18.5106 9.56625 18.9717 10.0274C19.1995 10.2536 19.38 10.5227 19.5029 10.8192C19.6257 11.1157 19.6885 11.4337 19.6875 11.7546C19.6875 12.4074 19.4337 13.0208 18.9464 13.5081L14 18.7371L9.01774 13.4705C8.7793 13.2287 8.59377 12.9399 8.47296 12.6225C8.35215 12.3051 8.29869 11.966 8.31599 11.6269C8.35274 10.9181 8.70011 10.2584 9.29336 9.77188C9.65386 9.47525 10.1631 9.3125 10.7275 9.3125H10.7712C11.4074 9.3125 11.9892 9.5295 12.3681 9.9075C12.5711 10.1096 12.7575 10.3328 12.9194 10.569C13.0398 10.7444 13.2011 10.8879 13.3894 10.987C13.5776 11.0861 13.7872 11.1379 14 11.1379C14.2128 11.1379 14.4223 11.0861 14.6106 10.987C14.7989 10.8879 14.9602 10.7444 15.0806 10.569C15.2132 10.3765 15.36 10.1943 15.5199 10.0239C15.7437 9.79765 16.0102 9.61825 16.3041 9.49611C16.5979 9.37398 16.9132 9.31156 17.2314 9.3125Z" fill="#3665F3"/>
</g>
<g clip-path="url(#clip3_2_760)">
<path d="M14 27.6875C21.4904 27.6875 27.5625 21.6154 27.5625 14.125C27.5625 6.63464 21.4904 0.5625 14 0.5625C6.50964 0.5625 0.4375 6.63464 0.4375 14.125C0.4375 21.6154 6.50964 27.6875 14 27.6875Z" stroke="#E5E5E5" stroke-width="0.875"/>
<path d="M19.8993 9.10071C19.5455 8.7471 19.1246 8.46773 18.6614 8.27901C18.1981 8.09029 17.7018 7.99601 17.2017 8.00171C16.2129 8.00171 15.2679 8.40158 14.5784 9.11033C14.3684 9.33346 14.1742 9.57233 14 9.82521C13.825 9.57233 13.6325 9.33346 13.4217 9.11033C13.0807 8.75963 12.6729 8.48084 12.2223 8.29042C11.7717 8.10001 11.2876 8.00183 10.7984 8.00171H10.7678C10.0259 7.99899 9.29991 8.21609 8.68133 8.62563C8.06275 9.03516 7.57936 9.61876 7.29216 10.3028C7.00496 10.9868 6.92684 11.7405 7.06764 12.4689C7.20844 13.1973 7.56186 13.8676 8.08329 14.3953L13.3639 19.9761C13.4457 20.0627 13.5443 20.1317 13.6537 20.1788C13.7631 20.226 13.8809 20.2503 14 20.2503C14.1192 20.2503 14.237 20.226 14.3464 20.1788C14.4558 20.1317 14.5544 20.0627 14.6362 19.9761L19.8993 14.412C20.2483 14.0633 20.5251 13.6494 20.714 13.1937C20.9028 12.738 21.0001 12.2496 21.0001 11.7563C21.0001 11.2631 20.9028 10.7746 20.714 10.319C20.5251 9.8633 20.2483 9.44933 19.8993 9.10071Z" fill="#3665F3"/>
</g>
</g>
<defs>
<clipPath id="clip0_2_760">
<rect width="28" height="28" fill="white" transform="translate(0 0.125)"/>
</clipPath>
<clipPath id="clip1_2_760">
<rect width="28" height="28" fill="white" transform="translate(0 0.125)"/>
</clipPath>
<clipPath id="clip2_2_760">
<rect width="28" height="28" fill="white" transform="translate(0 0.125)"/>
</clipPath>
<clipPath id="clip3_2_760">
<rect width="28" height="28" fill="white" transform="translate(0 0.125)"/>
</clipPath>
</defs>
</svg>
